<svg width="233" height="34" fill="none" xmlns="http://www.w3.org/2000/svg">
    <g clip-path="url(#clip0)" fill="#fff">
        <path d="M107.315.984h-11.41L85.577 12.177V.984H75.166v30.85h10.412v-7.62l2.367-2.602 7.817 10.223h5.633l2.425-5.456-8.986-11.826L107.315.984zM129.137 26.463h-11.895l-2.097 5.371h-10.726L118.097.984h10.37l13.678 30.85h-10.926l-2.082-5.37zm-2.853-7.495l-3.095-7.72-3.038 7.763 6.133-.043zM171.798 31.834l-.086-14.06-6.803 11.248h-4.65L153.47 18.28v13.569h-9.614V.984h8.672l10.198 16.438L172.582.984h8.686l.086 30.85h-9.556zM186.503.984h10.554v30.85h-10.554V.984zM233 .984v30.85h-8.672l-11.895-14.06v14.06h-10.284V.984h8.686l11.881 14.062V.984H233zM5.705 31.455a10.143 10.143 0 01-4.278-3.656A9.736 9.736 0 010 22.498a8.905 8.905 0 01.898-4.286 9.044 9.044 0 012.84-3.363 15.589 15.589 0 019.456-2.813c1.768-.003 3.53.205 5.248.619a13.94 13.94 0 013.709 1.406V12.22a6.846 6.846 0 00-.582-3.047 6.94 6.94 0 00-1.872-2.493 9.255 9.255 0 00-6.204-2.081 10.36 10.36 0 00-4.835 1.125A8.787 8.787 0 005.149 8.83L1.227 5.934a12.4 12.4 0 015.063-4.36A15.978 15.978 0 0113.436 0a14.395 14.395 0 019.984 3.29 11.583 11.583 0 012.838 4.095c.636 1.551.923 3.22.842 4.89V31.82h-4.95v-4.415h-.242a11.2 11.2 0 01-4.05 3.81 11.913 11.913 0 01-6.077 1.576 13.683 13.683 0 01-6.076-1.336zm11.54-4.542a10.027 10.027 0 003.608-3.571 9.307 9.307 0 001.355-4.894 13.19 13.19 0 00-3.666-1.575 16.97 16.97 0 00-4.536-.604 10.176 10.176 0 00-6.475 1.757 5.639 5.639 0 00-1.634 2.018 5.557 5.557 0 00-.548 2.524 4.96 4.96 0 00.47 2.306c.34.722.848 1.353 1.484 1.842a7.677 7.677 0 004.963 1.533 9.603 9.603 0 004.921-1.336h.057zM33.204 1.139h4.964v5.104h.242a8.475 8.475 0 013.751-4.218 12.346 12.346 0 018.03-1.336v5.259a12.654 12.654 0 00-2.852-.24 8.537 8.537 0 00-3.517.611 8.435 8.435 0 00-2.944 1.991 9.343 9.343 0 00-2.496 6.764V31.82h-5.178V1.139zM63.014 31.694a7.765 7.765 0 01-2.724-1.631 7.222 7.222 0 01-1.812-2.658 9.716 9.716 0 01-.613-3.698V5.624h-3.566V.97h16.36v4.654h-7.617v16.874a5.926 5.926 0 00.984 3.754c.43.452.957.804 1.541 1.033a4.335 4.335 0 001.84.289 6.426 6.426 0 003.437-1.027v5.02a7.82 7.82 0 01-1.868.605c-.8.137-1.613.198-2.425.183a9.98 9.98 0 01-3.537-.661zM48.808 21.387s-5.02 3.389-5.02 8.029a4.943 4.943 0 001.67 3.085 5.077 5.077 0 003.321 1.233A5.077 5.077 0 0052.1 32.5a4.943 4.943 0 001.672-3.085c.057-4.64-4.963-8.029-4.963-8.029zm0 10.433a1.922 1.922 0 01-1.458-.529 1.868 1.868 0 01-.568-1.425c.057-.647.271-1.27.624-1.818a4.083 4.083 0 011.402-1.332 4.081 4.081 0 011.388 1.322c.35.542.563 1.16.623 1.8a1.845 1.845 0 01-.552 1.438 1.9 1.9 0 01-1.46.544z"/>
    </g>
    <defs>
        <clipPath id="clip0">
            <path fill="#fff" d="M0 0h233v34H0z"/>
        </clipPath>
    </defs>
</svg>
