<svg width="233" height="34" viewBox="0 0 233 34" fill="none" xmlns="http://www.w3.org/2000/svg">
<g clip-path="url(#clip0)">
<path d="M107.315 0.984253H95.9041L85.5777 12.177V0.984253H75.1658V31.8345H85.5777V24.2134L87.9454 21.612L95.7615 31.8345H101.395L103.82 26.3788L94.8344 14.5533L107.315 0.984253Z" fill="white"/>
<path d="M129.137 26.4632H117.242L115.145 31.8345H104.419L118.097 0.984253H128.467L142.145 31.8345H131.219L129.137 26.4632ZM126.284 18.9685L123.189 11.2489L120.151 19.0107L126.284 18.9685Z" fill="white"/>
<path d="M171.798 31.8345L171.712 17.7733L164.909 29.0223H160.259L153.47 18.2795V31.8486H143.856V0.984253H152.528L162.726 17.4218L172.582 0.984253H181.268L181.354 31.8345H171.798Z" fill="white"/>
<path d="M186.503 0.984253H197.057V31.8345H186.503V0.984253Z" fill="white"/>
<path d="M233 0.984253V31.8345H224.328L212.433 17.7733V31.8345H202.149V0.984253H210.835L222.716 15.0455V0.984253H233Z" fill="white"/>
<path d="M5.7054 31.4549C3.95723 30.6595 2.47357 29.3919 1.42651 27.799C0.451239 26.2008 -0.043397 24.3624 0.000210755 22.4979C-0.0622193 21.0184 0.246079 19.5464 0.897848 18.2123C1.54962 16.8781 2.52478 15.7229 3.73711 14.8486C6.4916 12.9152 9.81396 11.9271 13.1935 12.0364C14.962 12.0328 16.7244 12.2406 18.4422 12.655C19.7406 12.9452 20.9896 13.4188 22.1506 14.0612V12.2191C22.1926 11.173 21.9937 10.1311 21.5688 9.17158C21.1439 8.21207 20.5041 7.3599 19.6974 6.67903C17.9598 5.25567 15.7505 4.51463 13.493 4.59797C11.812 4.57601 10.1515 4.96234 8.65784 5.72287C7.22406 6.42585 6.01121 7.50003 5.14915 8.8304L1.22683 5.93379C2.47733 4.05064 4.22896 2.54269 6.29018 1.57481C8.51402 0.505102 10.9618 -0.0343547 13.4359 -4.32301e-05C17.0678 -0.198484 20.6393 0.978539 23.42 3.29028C24.6549 4.43733 25.6232 5.83436 26.2585 7.38538C26.8937 8.9364 27.1807 10.6046 27.0999 12.2754V31.8205H22.1506V27.4053H21.9081C20.9046 28.9912 19.5114 30.3019 17.8575 31.2158C16.014 32.2733 13.914 32.8176 11.7814 32.7907C9.67827 32.8174 7.59779 32.36 5.7054 31.4549ZM17.2442 26.9131C18.7379 26.0475 19.9806 24.8176 20.8527 23.3416C21.7503 21.8635 22.219 20.1709 22.2077 18.4483C21.0748 17.7414 19.8385 17.2102 18.5421 16.8734C17.0654 16.4682 15.5393 16.2647 14.0065 16.2688C11.7076 16.1068 9.42189 16.7272 7.53106 18.0264C6.83502 18.5648 6.27553 19.2554 5.89679 20.0437C5.51806 20.8319 5.33046 21.6962 5.34883 22.5682C5.31801 23.3628 5.4791 24.1532 5.81882 24.8744C6.15855 25.5955 6.66719 26.2268 7.30286 26.7163C8.7231 27.7866 10.4805 28.3293 12.2664 28.2489C13.9995 28.2545 15.7012 27.7926 17.1871 26.9131H17.2442Z" fill="white"/>
<path d="M33.2042 1.13903H38.1677V6.24324H38.4102C39.1359 4.45646 40.4595 2.96801 42.1614 2.02488C44.6037 0.685649 47.4386 0.214069 50.1914 0.689067V5.94796C49.253 5.76067 48.2959 5.68046 47.3388 5.70892C46.1359 5.66252 44.9369 5.87069 43.8224 6.31939C42.7079 6.7681 41.7038 7.44694 40.8777 8.31024C39.1706 10.1502 38.273 12.5824 38.3817 15.0737V31.8206H33.2042V1.13903Z" fill="white"/>
<path d="M63.0138 31.694C62.0008 31.3423 61.0731 30.7869 60.2896 30.0628C59.4918 29.3216 58.8729 28.4135 58.4782 27.4053C58.0354 26.2227 57.8272 24.9672 57.8649 23.7072V5.62447H54.2991V0.970215H70.6588V5.62447H63.0423V22.4979C62.9391 23.8223 63.2853 25.143 64.0265 26.2523C64.4569 26.7038 64.9829 27.0563 65.5671 27.2848C66.1514 27.5132 66.7795 27.612 67.4068 27.574C68.6288 27.5645 69.8222 27.2081 70.8442 26.5475V31.5674C70.25 31.8464 69.6221 32.0496 68.9757 32.172C68.1752 32.3085 67.3633 32.3697 66.551 32.3548C65.3408 32.3505 64.1417 32.1265 63.0138 31.694Z" fill="white"/>
<path d="M48.8079 21.3871C48.8079 21.3871 43.7873 24.7758 43.7873 29.416C43.9463 30.6104 44.5403 31.707 45.4588 32.5014C46.3773 33.2958 47.5575 33.7339 48.7793 33.7339C50.0012 33.7339 51.1814 33.2958 52.0998 32.5014C53.0183 31.707 53.6124 30.6104 53.7714 29.416C53.8284 24.7758 48.8079 21.3871 48.8079 21.3871ZM48.8079 31.8205C48.5408 31.8387 48.2729 31.8009 48.0217 31.7097C47.7705 31.6184 47.5417 31.4758 47.3504 31.2912C47.1591 31.1066 47.0096 30.8842 46.9117 30.6385C46.8138 30.3929 46.7698 30.1296 46.7825 29.866C46.8394 29.2194 47.0531 28.5958 47.4055 28.0476C47.758 27.4995 48.239 27.0429 48.8079 26.7163C49.3704 27.0418 49.8462 27.4947 50.1959 28.0376C50.5456 28.5804 50.7592 29.1975 50.8189 29.8379C50.8356 30.1025 50.7951 30.3676 50.6999 30.6156C50.6047 30.8636 50.4572 31.0889 50.267 31.2764C50.0768 31.4638 49.8484 31.6093 49.5968 31.7031C49.3452 31.797 49.0763 31.837 48.8079 31.8205Z" fill="white"/>
</g>
<defs>
<clipPath id="clip0">
<rect width="233" height="34" fill="white"/>
</clipPath>
</defs>
</svg>
