<svg width="233" height="34" viewBox="0 0 233 34" fill="none" xmlns="http://www.w3.org/2000/svg">
<g clip-path="url(#clip0)">
<path d="M107.315 0.984375H95.9044L85.578 12.1771V0.984375H75.166V31.8347H85.578V24.2135L87.9456 21.6122L95.7617 31.8347H101.396L103.82 26.3789L94.8347 14.5534L107.315 0.984375Z"/>
<path d="M129.137 26.4633H117.242L115.145 31.8347H104.419L118.098 0.984375H128.467L142.145 31.8347H131.22L129.137 26.4633ZM126.285 18.9687L123.19 11.2491L120.151 19.0108L126.285 18.9687Z" fill="black"/>
<path d="M171.798 31.8347L171.712 17.7735L164.909 29.0224H160.259L153.47 18.2797V31.8487H143.856V0.984375H152.528L162.726 17.4219L172.582 0.984375H181.268L181.354 31.8347H171.798Z" fill="black"/>
<path d="M186.503 0.984375H197.058V31.8347H186.503V0.984375Z" fill="black"/>
<path d="M233 0.984375V31.8347H224.328L212.433 17.7735V31.8347H202.149V0.984375H210.836L222.717 15.0456V0.984375H233Z" fill="black"/>
<path d="M5.70528 31.455C3.9571 30.6596 2.47345 29.392 1.42639 27.7991C0.451117 26.201 -0.0435191 24.3626 8.86843e-05 22.498C-0.0623414 21.0185 0.245957 19.5466 0.897726 18.2124C1.54949 16.8783 2.52466 15.723 3.73699 14.8487C6.49148 12.9153 9.81384 11.9273 13.1933 12.0365C14.9619 12.033 16.7243 12.2407 18.4421 12.6552C19.7405 12.9453 20.9895 13.4189 22.1505 14.0613V12.2193C22.1925 11.1731 21.9936 10.1312 21.5687 9.1717C21.1438 8.21219 20.504 7.36002 19.6973 6.67915C17.9597 5.25579 15.7504 4.51475 13.4929 4.59809C11.8119 4.57613 10.1513 4.96246 8.65772 5.72299C7.22394 6.42597 6.01109 7.50015 5.14902 8.83052L1.2267 5.93391C2.47721 4.05076 4.22883 2.54281 6.29006 1.57493C8.5139 0.505224 10.9616 -0.0342326 13.4358 7.88402e-05C17.0677 -0.198361 20.6392 0.978662 23.4199 3.2904C24.6548 4.43745 25.6231 5.83449 26.2583 7.3855C26.8936 8.93652 27.1806 10.6047 27.0997 12.2755V31.8206H22.1505V27.4054H21.908C20.9045 28.9913 19.5113 30.302 17.8573 31.216C16.0139 32.2734 13.9139 32.8177 11.7813 32.7908C9.67815 32.8175 7.59767 32.3601 5.70528 31.455ZM17.244 26.9132C18.7378 26.0476 19.9804 24.8177 20.8526 23.3417C21.7502 21.8637 22.2189 20.171 22.2075 18.4484C21.0747 17.7415 19.8384 17.2104 18.542 16.8735C17.0653 16.4683 15.5392 16.2648 14.0063 16.2689C11.7074 16.107 9.42177 16.7274 7.53094 18.0265C6.8349 18.5649 6.2754 19.2555 5.89667 20.0438C5.51793 20.832 5.33034 21.6963 5.34871 22.5683C5.31789 23.3629 5.47898 24.1533 5.8187 24.8745C6.15842 25.5956 6.66706 26.2269 7.30273 26.7164C8.72298 27.7867 10.4804 28.3294 12.2663 28.249C13.9994 28.2547 15.7011 27.7927 17.187 26.9132H17.244Z" fill="black"/>
<path d="M33.2041 1.13903H38.1676V6.24324H38.4101C39.1358 4.45646 40.4594 2.96801 42.1613 2.02488C44.6036 0.685649 47.4384 0.214069 50.1913 0.689067V5.94796C49.2529 5.76067 48.2957 5.68046 47.3387 5.70892C46.1358 5.66252 44.9367 5.87069 43.8222 6.31939C42.7077 6.7681 41.7037 7.44694 40.8776 8.31024C39.1704 10.1502 38.2728 12.5824 38.3816 15.0737V31.8206H33.2041V1.13903Z" fill="black"/>
<path d="M63.014 31.694C62.001 31.3423 61.0733 30.7869 60.2898 30.0628C59.492 29.3216 58.873 28.4135 58.4784 27.4053C58.0356 26.2227 57.8274 24.9672 57.8651 23.7072V5.62447H54.2993V0.970215H70.659V5.62447H63.0425V22.4979C62.9393 23.8223 63.2855 25.143 64.0267 26.2523C64.4571 26.7038 64.9831 27.0563 65.5673 27.2848C66.1516 27.5132 66.7797 27.612 67.407 27.574C68.629 27.5645 69.8224 27.2081 70.8444 26.5475V31.5674C70.2501 31.8464 69.6223 32.0496 68.9759 32.172C68.1754 32.3085 67.3635 32.3697 66.5512 32.3548C65.341 32.3505 64.1419 32.1265 63.014 31.694Z" fill="black"/>
<path d="M48.8077 21.387C48.8077 21.387 43.7871 24.7757 43.7871 29.4159C43.9461 30.6103 44.5402 31.7069 45.4586 32.5013C46.3771 33.2957 47.5573 33.7338 48.7792 33.7338C50.001 33.7338 51.1812 33.2957 52.0997 32.5013C53.0181 31.7069 53.6122 30.6103 53.7712 29.4159C53.8282 24.7757 48.8077 21.387 48.8077 21.387ZM48.8077 31.8204C48.5406 31.8385 48.2727 31.8008 48.0215 31.7095C47.7703 31.6183 47.5415 31.4757 47.3502 31.2911C47.1589 31.1065 47.0094 30.8841 46.9115 30.6384C46.8137 30.3928 46.7696 30.1295 46.7823 29.8659C46.8392 29.2193 47.0529 28.5956 47.4054 28.0475C47.7578 27.4993 48.2388 27.0427 48.8077 26.7162C49.3702 27.0417 49.846 27.4946 50.1957 28.0374C50.5455 28.5803 50.759 29.1974 50.8188 29.8377C50.8355 30.1024 50.7949 30.3675 50.6997 30.6155C50.6046 30.8635 50.457 31.0887 50.2668 31.2762C50.0766 31.4637 49.8482 31.6092 49.5966 31.703C49.345 31.7968 49.0761 31.8368 48.8077 31.8204Z" fill="black"/>
</g>
<defs>
<clipPath id="clip0">
<rect width="233" height="34" fill="white"/>
</clipPath>
</defs>
</svg>
